# xmcd
#
# Track frame offsets:
#	150
#	14558
#	33291
#	49868
#	64214
#	77764
#	97185
#	114251
#	133309
#	154475
#	172156
#	191174
#	213872
#	229663
#	248512
#	276125
#
# Disc length: 3696 seconds
#
# Revision: 1
# Processed by: cddbd v1.5.2PL0 Copyright (c) Steve Scherf et al.
# Submitted via: audiograbber 1.83.01
#
DISCID=e60e6e10
DTITLE=Shania Twain - CB90232
DYEAR=1900
DGENRE=Karaoke
TTITLE0=Come On Over
TTITLE1=Man! I Feel Like A Woman
TTITLE2=You've Got A Way
TTITLE3=What Made You Say That
TTITLE4=You Lay A Whole Lot Of Love On Me
TTITLE5=If You Wanna Touch Her, Ask
TTITLE6=I'm Holdin' On To Love
TTITLE7=Rock This Country!
TTITLE8=Ain't No Particular Way
TTITLE9=C'est La Vie
TTITLE10=Don't
TTITLE11=Forever And For Always
TTITLE12=In My Car, I'm The Driver
TTITLE13=Juanita
TTITLE14=Ka-Ching
TTITLE15=Data
EXTD=
EXTT0=
EXTT1=
EXTT2=
EXTT3=
EXTT4=
EXTT5=
EXTT6=
EXTT7=
EXTT8=
EXTT9=
EXTT10=
EXTT11=
EXTT12=
EXTT13=
EXTT14=
EXTT15=
PLAYORDER=
